DBRep_DrawableShape

CASCADE Topology V1, (c) Matra-Datavision
Locations 0
Curve2ds 13
1 3.1415926535897931 0 0 1 
1 0 -1.5707963267948966 1 0 
1 1.5707963267948966 -4.7123889803846897 -0 1 
1 1.5707963267948966 -4.7123889803846897 -0 1 
1 0 1.5707963267948966 1 0 
1 3.1415926535897931 0 0 1 
1 3.1415926535897931 0 0 1 
1 6.2831853071795862 -0 0 1 
1 0 9.5 1 0 
1 0 0 1 0 
1 1.5707963267948966 -4.7123889803846897 -0 1 
1 0 -1.5707963267948966 1 0 
1 0 1.5707963267948966 1 0 
Curves 10
7 0 0  10 11 2  10.000000000000014 -3.1554436208840472e-30 -100.00000000000001  -21.41592653590094 3.8472143247080004e-15 -100.00000000000227  -52.831850342956081 7.6944283152406106e-15 -89.033802673169674  -79.941373916993413 1.1014277797025084e-14 -67.10113632217076  -98.43790145657276 1.3279374311890774e-14 -36.135945388139874  -105.02764506186875 1.4086358500795824e-14 -2.9373836696322645e-11  -98.43790145657816 1.3279374311892119e-14 36.135945388191587  -79.941373916986365 1.1014277797023401e-14 67.101136322136185  -52.831850342960664 7.6944283152416519e-15 89.033802673185889  -21.415926535899551 3.8472143247076904e-15 99.999999999998067  10.000000000000014 -3.1554436208840472e-30 100 
 -1.5707963267948966 11 1.5707963267948966 11
2 10 0 0 1 0 -0 0 0 1 0 -1 0 100
2 10 0 0 1 0 -0 0 0 1 0 -1 0 100
1 10 0 -100 0 0 1 
7 0 0  1 2 2  0.5 -6.1230317691118863e-17 -0.5  10 -6.1230317691118863e-17 -0.5 
 0 2 9.5 2
7 0 0  7 8 2  0.49999999999999994 0 -0.5  0.27560052474358582 2.7480102319341416e-17 -0.49999999999999939  0.051397520362961656 5.4936144690398068e-17 -0.38247814366166522  -0.10023228945837268 7.3504827544009532e-17 -0.14768786911909373  -0.10023228945836993 7.350482754400523e-17 0.14768786911909307  0.051397520362959519 5.4936144690400478e-17 0.38247814366166616  0.27560052474358687 2.7480102319340778e-17 0.49999999999999939  0.49999999999999994 0 0.5 
 -1.5707963267948966 8 1.5707963267948966 8
1 0.5 1.2246063538223773e-16 0.5 1 0 0 
1 10 0 -100 0 0 1 
2 10 0 0 1 0 0 -0 0 1 0 -1 0 0.5
2 0.5 0 0 1 0 0 -0 0 1 0 -1 0 0.5
Polygon3D 0
PolygonOnTriangulations 0
Surfaces 5
10 0 3.1415926535897931 -1.5707963267948966 1.5707963267948966
4 10 0 0 0 0 1 1 0 -0 -0 1 0 100
1 -100 0 -100 -0 1 0 0 0 1 1 0 -0 
10 3.1415926535897931 6.2831853071795862 0 9.5
2 0.5 0 0 1 0 0 -0 0 1 0 -1 0 0.5
10 0 3.1415926535897931 -1.5707963267948966 1.5707963267948966
4 0.5 0 0 0 0 1 1 0 -0 -0 1 0 0.5
1 10 0 -100 1 0 -0 0 0 1 0 -1 0 
Triangulations 0

TShapes 34
Ve
1.00000000017764e-05
10 -5.91645678915759e-31 -100
0 0

0101101
*
Ve
1.00000000017764e-05
10 -5.91645678915759e-31 100
0 0

0101101
*
Ed
 1e-05 1 1 0
1  1 0 -1.5707963267949 1.5707963267949
2  1 1 0 -1.5707963267949 1.5707963267949
0

0101000
+34 0 -33 0 *
Ed
 1e-07 1 1 1
2  2 1 0 1.5707963267949 3.14159265358979
0

0101100
+34 0 -34 0 *
Ve
2.00001e-07
10 100 0
0 0

0101101
*
Ed
 1e-07 1 1 0
1  2 0 3.14159265358979 4.71238898038469
2  3 1 0 3.14159265358979 4.71238898038469
0

0101000
+34 0 -30 0 *
Ed
 1e-07 1 1 0
1  3 0 4.71238898038469 6.28318530717959
2  4 1 0 4.71238898038469 6.28318530717959
0

0101000
+30 0 -33 0 *
Ed
 1e-07 1 1 1
2  5 1 0 1.5707963267949 3.14159265358979
0

0101100
+33 0 -33 0 *
Wi

0101000
+32 0 +31 0 -29 0 -28 0 -27 0 *
Fa
0  1e-07 1 0

0111000
+26 0 *
Ve
1e-05
10 -6.12303176911189e-17 -0.5
0 0

0101101
*
Ed
 1e-07 1 1 0
1  4 0 0 99.5
0

0101000
+34 0 -24 0 *
Ve
1.163106417148e-05
0.5 -3.06151588455594e-17 -0.5
0 0

0101101
*
Ed
 1e-05 1 1 0
1  5 0 0 9.5
2  6 3 0 0 9.5
0

0101000
+22 0 -24 0 *
Ve
0.00022365000100002
0.5 6.12303176911189e-17 0.5
0 0

0101101
*
Ed
 1e-05 1 1 0
1  6 0 -1.5707963267949 1.5707963267949
2  7 4 0 -1.5707963267949 1.5707963267949
0

0101000
+22 0 -20 0 *
Ve
1e-07
10 1.22460635382238e-16 0.5
0 0

0101101
*
Ed
 1e-07 1 1 0
1  7 0 0 9.5
2  8 3 0 0 9.5
0

0101000
+20 0 -18 0 *
Ed
 1e-07 1 1 0
1  8 0 100.5 200
0

0101000
+18 0 -33 0 *
Wi

0101000
-23 0 +21 0 -19 0 -17 0 -16 0 +32 0 *
Fa
0  1e-07 2 0

0111000
+15 0 *
Ed
 1e-07 1 1 0
1  9 0 3.14159265358979 6.28318530717959
2  9 3 0 3.14159265358979 6.28318530717959
0

0101000
-18 0 +24 0 *
Wi

0101000
-23 0 -13 0 -16 0 +28 0 +29 0 *
Fa
0  1e-07 5 0

0111000
+12 0 *
Ed
 1e-07 1 1 0
1  10 0 3.14159265358979 6.28318530717959
2  10 3 0 3.14159265358979 6.28318530717959
2  11 4 0 3.14159265358979 6.28318530717959
0

0101000
+22 0 -20 0 *
Wi

0101000
+10 0 -21 0 +17 0 -13 0 *
Fa
0  1e-07 3 0

0111000
+9 0 *
Ed
 1e-07 1 1 1
2  12 4 0 1.5707963267949 3.14159265358979
0

0101100
+22 0 -22 0 *
Ed
 1e-07 1 1 1
2  13 4 0 1.5707963267949 3.14159265358979
0

0101100
+20 0 -20 0 *
Wi

0101000
+7 0 -10 0 -6 0 +19 0 *
Fa
0  1e-07 4 0

0111000
+5 0 *
Sh

0101100
+25 0 -14 0 +11 0 -8 0 -4 0 *
So

0100000
+3 0 *
Co

1100000
+2 0 *

+1 0 
##EGADS HEADER FILE-REV 1 ##
0
  1  1  5  5  14  7  3
1 5 1
_body
7
1 5 1
_brch
7
2 8 3
_tParams
 6.702203111715e+00  2.680881244686e-01  1.500000000000e+01 
    2 0 3
1 5 2
_body
1 2 
1 5 2
_brch
1 2 
1 7 3
_faceID
1 2 1 
    2 1 3
1 5 2
_body
6 3 
1 5 2
_brch
6 3 
1 7 3
_faceID
6 3 1 
    2 2 3
1 5 2
_body
6 2 
1 5 2
_brch
6 2 
1 7 3
_faceID
6 2 1 
    2 3 3
1 5 2
_body
3 4 
1 5 2
_brch
3 4 
1 7 3
_faceID
3 4 1 
    2 4 3
1 5 2
_body
2 2 
1 5 2
_brch
2 2 
1 7 3
_faceID
2 2 1 
    4 0 2
1 5 2
_body
7 0 
1 7 5
_edgeID
1 2 6 3 1 
    4 1 2
1 5 2
_body
1 -3 
1 7 5
_edgeID
0 0 1 2 1 
    4 2 2
1 5 2
_body
7 0 
1 7 5
_edgeID
1 2 6 2 1 
    4 3 2
1 5 2
_body
7 0 
1 7 5
_edgeID
1 2 6 2 2 
    4 4 2
1 5 2
_body
1 -3 
1 7 5
_edgeID
0 0 1 2 2 
    4 5 2
1 5 2
_body
6 203 
1 7 5
_edgeID
6 2 6 3 1 
    4 6 2
1 5 2
_body
7 0 
1 7 5
_edgeID
3 4 6 3 1 
    4 7 2
1 5 2
_body
7 0 
1 7 5
_edgeID
2 2 6 3 1 
    4 8 2
1 5 2
_body
7 0 
1 7 5
_edgeID
3 4 6 3 2 
    4 9 2
1 5 2
_body
6 203 
1 7 5
_edgeID
6 2 6 3 2 
    4 10 2
1 5 2
_body
7 0 
1 7 5
_edgeID
3 4 6 2 1 
    4 11 2
1 5 2
_body
4 0 
1 7 5
_edgeID
2 2 3 4 1 
    4 12 2
1 5 2
_body
2 -3 
1 7 5
_edgeID
0 0 2 2 1 
    4 13 2
1 5 2
_body
2 -3 
1 7 5
_edgeID
0 0 2 2 2 
    0 0 0
