DBRep_DrawableShape

CASCADE Topology V1, (c) Matra-Datavision
Locations 0
Curve2ds 22
1 3.1415926535897931 0 0 1 
7 0 0  10 11 2  -2.8421709430404007e-14 110.00000000000003  -2.3163693185779266e-12 78.58407346409976  10.966197326830397 47.16814965704129  32.898863677829326 20.0586260830123  63.864054611859203 1.5620985434189834  99.999999999972857 -5.0276450618598005  136.13594538818859 1.562098543414308  167.10113632213876 20.058626083018538  189.03380267318454 47.168149657037141  199.99999999999849 78.584073464101039  200.00000000000003 110.00000000000003 
 -1.5707963267948966 11 1.5707963267948966 11
1 0 -1.5707963267948966 1 0 
1 1.5707963267948966 -4.7123889803846897 -0 1 
2 100 0 1 0 -0 1 100
1 1.5707963267948966 -4.7123889803846897 -0 1 
2 100 0 1 0 -0 1 100
1 0 1.5707963267948966 1 0 
1 0 110 1 0 
1 0 0 1 0 
7 0 0  1 2 2  99.5 100.5  99.5 110 
 0 2 9.5 2
1 3.1415926535897931 0 0 1 
7 0 0  7 8 2  99.5 100.5  99.5 100.27560052474358  99.617521856338342 100.05139752036297  99.852312130880904 99.899767710541624  100.1476878691191 99.899767710541624  100.38247814366166 100.05139752036295  100.5 100.27560052474358  100.5 100.5 
 -1.5707963267948966 8 1.5707963267948966 8
1 3.1415926535897931 0 0 1 
1 100.5 100.5 0 1 
1 6.2831853071795862 -0 0 1 
2 100 0 1 0 -0 1 0.5
1 0 9.5 1 0 
1 0 0 1 0 
1 1.5707963267948966 -4.7123889803846897 -0 1 
1 0 -1.5707963267948966 1 0 
1 0 1.5707963267948966 1 0 
Curves 10
7 0 0  10 11 2  10.000000000000028 3.1554436208840472e-30 -100.00000000000003  -21.415926535900248 3.847341387444099e-15 -100.00000000000232  -52.83185034295871 7.6946824407000566e-15 -89.033802673169603  -79.9413739169877 1.1014641567837564e-14 -67.101136322170674  -98.437901456581017 1.3279812892502477e-14 -36.135945388140797  -105.0276450618598 1.4086823733850224e-14 -2.7142732506035924e-11  -98.437901456585692 1.3279812892503192e-14 36.135945388188588  -79.941373916981462 1.1014641567836635e-14 67.101136322138757  -52.831850342962859 7.6946824407006578e-15 89.033802673184525  -21.415926535898969 3.8473413874439199e-15 99.999999999998494  10.000000000000028 3.1554436208840472e-30 100.00000000000003 
 -1.5707963267948966 11 1.5707963267948966 11
2 10 0 0 1 0 -0 0 0 1 0 -1 0 100
2 10 0 0 1 0 -0 0 0 1 0 -1 0 100
1 10 0 -100 0 0 1 
7 0 0  1 2 2  0.5 -6.123233995736766e-17 -0.5  10 -6.123233995736766e-17 -0.5 
 0 2 9.5 2
7 0 0  7 8 2  0.49999999999999983 0 -0.5  0.2756005247435856 2.7481009910311487e-17 -0.49999999999999994  0.051397520362962038 5.493795907770566e-17 -0.38247814366166327  -0.1002322894583729 7.3507255203009828e-17 -0.14768786911909718  -0.10023228945837021 7.3507255203006697e-17 0.14768786911909676  0.051397520362960032 5.4937959077707429e-17 0.38247814366166377  0.27560052474358665 2.7481009910311016e-17 0.50000000000000022  0.49999999999999983 0 0.5 
 -1.5707963267948966 8 1.5707963267948966 8
1 0.5 1.2246467991473532e-16 0.5 1 0 0 
1 10 0 -100 0 0 1 
2 10 0 0 1 0 0 -0 0 1 0 -1 0 0.5
2 0.5 0 0 1 0 0 -0 0 1 0 -1 0 0.5
Polygon3D 0
PolygonOnTriangulations 0
Surfaces 5
10 0 3.1415926535897931 -1.5707963267948966 1.5707963267948966
4 10 0 0 0 0 1 1 0 -0 -0 1 0 100
1 -100 0 -100 -0 1 0 0 0 1 1 0 -0 
1 10 0 -100 1 0 -0 0 0 1 0 -1 0 
10 3.1415926535897931 6.2831853071795862 0 9.5
2 0.5 0 0 1 0 0 -0 0 1 0 -1 0 0.5
10 0 3.1415926535897931 -1.5707963267948966 1.5707963267948966
4 0.5 0 0 0 0 1 1 0 -0 -0 1 0 0.5
Triangulations 0

TShapes 34
Ve
4.01000006248438e-05
10 -5.9164567891576e-31 -100
0 0

0101101
*
Ve
4.01000006639237e-05
10 -5.9164567891576e-31 100
0 0

0101101
*
Ed
 1e-05 1 1 0
1  1 0 -1.5707963267949 1.5707963267949
2  1 1 0 -1.5707963267949 1.5707963267949
2  2 2 0 -1.5707963267949 1.5707963267949
0

0101000
+34 0 -33 0 *
Ed
 1e-07 1 1 1
2  3 1 0 1.5707963267949 3.14159265358979
0

0101100
+34 0 -34 0 *
Ve
2.00001e-07
10 100 0
0 0

0101101
*
Ed
 1e-07 1 1 0
1  2 0 3.14159265358979 4.71238898038469
2  4 1 0 3.14159265358979 4.71238898038469
2  5 3 0 3.14159265358979 4.71238898038469
0

0101000
+34 0 -30 0 *
Ed
 1e-07 1 1 0
1  3 0 4.71238898038469 6.28318530717959
2  6 1 0 4.71238898038469 6.28318530717959
2  7 3 0 4.71238898038469 6.28318530717959
0

0101000
+30 0 -33 0 *
Ed
 1e-07 1 1 1
2  8 1 0 1.5707963267949 3.14159265358979
0

0101100
+33 0 -33 0 *
Wi

0101000
+32 0 +31 0 -29 0 -28 0 -27 0 *
Fa
0  1e-07 1 0

0111000
+26 0 *
Ve
1e-05
10 -6.12323399573677e-17 -0.5
0 0

0101101
*
Ed
 1e-07 1 1 0
1  4 0 0 99.5
2  9 2 0 0 99.5
2  10 3 0 0 99.5
0

0101000
+34 0 -24 0 *
Ve
4.01000009999874e-05
0.5 -3.06161699786838e-17 -0.5
0 0

0101101
*
Ed
 1e-05 1 1 0
1  5 0 0 9.5
2  11 2 0 0 9.5
2  12 4 0 0 9.5
0

0101000
+22 0 -24 0 *
Ve
1e-05
0.5 6.12323399573677e-17 0.5
0 0

0101101
*
Ed
 1e-05 1 1 0
1  6 0 -1.5707963267949 1.5707963267949
2  13 2 0 -1.5707963267949 1.5707963267949
2  14 5 0 -1.5707963267949 1.5707963267949
0

0101000
+22 0 -20 0 *
Ve
1e-07
10 1.22464679914735e-16 0.5
0 0

0101101
*
Ed
 1e-07 1 1 0
1  7 0 0 9.5
2  15 2 0 0 9.5
2  16 4 0 0 9.5
0

0101000
+20 0 -18 0 *
Ed
 1e-07 1 1 0
1  8 0 100.5 200
2  9 2 0 100.5 200
2  10 3 0 100.5 200
0

0101000
+18 0 -33 0 *
Wi

0101000
-23 0 +21 0 -19 0 -17 0 -16 0 +32 0 *
Fa
0  1e-07 2 0

0111000
+15 0 *
Ed
 1e-07 1 1 0
1  9 0 3.14159265358979 6.28318530717959
2  17 3 0 3.14159265358979 6.28318530717959
2  18 4 0 3.14159265358979 6.28318530717959
0

0101000
-18 0 +24 0 *
Wi

0101000
-23 0 -13 0 -16 0 +28 0 +29 0 *
Fa
0  1e-07 3 0

0111000
+12 0 *
Ed
 1e-07 1 1 0
1  10 0 3.14159265358979 6.28318530717959
2  19 4 0 3.14159265358979 6.28318530717959
2  20 5 0 3.14159265358979 6.28318530717959
0

0101000
+22 0 -20 0 *
Wi

0101000
+10 0 -21 0 +17 0 -13 0 *
Fa
0  1e-07 4 0

0111000
+9 0 *
Ed
 1e-07 1 1 1
2  21 5 0 1.5707963267949 3.14159265358979
0

0101100
+22 0 -22 0 *
Ed
 1e-07 1 1 1
2  22 5 0 1.5707963267949 3.14159265358979
0

0101100
+20 0 -20 0 *
Wi

0101000
+7 0 -10 0 -6 0 +19 0 *
Fa
0  1e-07 5 0

0111000
+5 0 *
Sh

0101000
+25 0 -14 0 +11 0 -8 0 -4 0 *
So

0100000
+3 0 *
Co

1100000
+2 0 *

+1 0 
##EGADS HEADER FILE-REV 1 ##
0
  1  1  5  5  14  7  3
1 5 1
_body
9
1 5 1
_brch
12
2 8 3
_tParams
 6.702203111715e+00  2.680881244686e-01  1.500000000000e+01 
    2 0 3
1 5 2
_body
5 2 
1 5 2
_brch
7 2 
1 7 3
_faceID
5 2 1 
    2 1 3
1 5 2
_body
8 3 
1 5 2
_brch
11 3 
1 7 3
_faceID
8 3 1 
    2 2 3
1 5 2
_body
8 2 
1 5 2
_brch
11 2 
1 7 3
_faceID
8 2 1 
    2 3 3
1 5 2
_body
6 3 
1 5 2
_brch
8 3 
1 7 3
_faceID
6 3 1 
    2 4 3
1 5 2
_body
6 5 
1 5 2
_brch
8 5 
1 7 3
_faceID
6 5 1 
    4 0 2
1 5 2
_body
9 0 
1 7 5
_edgeID
5 2 8 3 1 
    4 1 2
1 5 2
_body
5 -3 
1 7 5
_edgeID
0 0 5 2 1 
    4 2 2
1 5 2
_body
9 0 
1 7 5
_edgeID
5 2 8 2 1 
    4 3 2
1 5 2
_body
9 0 
1 7 5
_edgeID
5 2 8 2 2 
    4 4 2
1 5 2
_body
5 -3 
1 7 5
_edgeID
0 0 5 2 2 
    4 5 2
1 5 2
_body
8 203 
1 7 5
_edgeID
8 2 8 3 1 
    4 6 2
1 5 2
_body
9 0 
1 7 5
_edgeID
6 3 8 3 1 
    4 7 2
1 5 2
_body
9 0 
1 7 5
_edgeID
6 5 8 3 1 
    4 8 2
1 5 2
_body
9 0 
1 7 5
_edgeID
6 3 8 3 2 
    4 9 2
1 5 2
_body
8 203 
1 7 5
_edgeID
8 2 8 3 2 
    4 10 2
1 5 2
_body
9 0 
1 7 5
_edgeID
6 3 8 2 1 
    4 11 2
1 5 2
_body
6 305 
1 7 5
_edgeID
6 3 6 5 1 
    4 12 2
1 5 2
_body
6 -3 
1 7 5
_edgeID
0 0 6 5 1 
    4 13 2
1 5 2
_body
6 -3 
1 7 5
_edgeID
0 0 6 5 2 
    0 0 0
