DBRep_DrawableShape

CASCADE Topology V1, (c) Matra-Datavision
Locations 2
1
              1               0               0               0 
              0              -1 -1.22464679914735e-16               0 
              0 1.22464679914735e-16              -1               0 
2  1 -1 0
Curve2ds 16
1 3.1415926535897931 0 0 1 
1 0 -1.5707963267948966 1 0 
1 0 -6.2831853071795862 0 1 
1 0 1.5707963267948966 1 0 
1 0 0 0 1 
1 0 0 0 1 
1 0 -1.1102230246251568e-16 0 1 
1 3.1415926535897931 -1.1102230246251568e-16 0 1 
1 3.1415926535897931 0 0 1 
1 3.1415926535897931 0 0 1 
1 0 1 1 0 
1 0 0 1 0 
1 0 0 1 0 
1 0 9.4999999999999964 1 0 
1 0 -1.1102230246251568e-16 1 0 
1 0 1.5707963267948966 1 0 
Curves 10
7 0 0  10 11 2  1.4210854715202004e-14 3.1554436208840472e-30 -100.00000000000001  -31.415926535901061 3.8473413874440146e-15 -100.00000000000227  -62.831850342955356 7.6946824407003959e-15 -89.033802673169674  -89.941373916994962 1.1014641567836782e-14 -67.10113632217076  -108.4379014565705 1.3279812892503698e-14 -36.135945388139874  -115.02764506187067 1.4086823733848801e-14 -2.9373836696322645e-11  -108.43790145657748 1.3279812892504421e-14 36.135945388191587  -89.941373916985981 1.1014641567835863e-14 67.101136322136185  -62.83185034296109 7.6946824407009828e-15 89.033802673185889  -31.415926535899374 3.8473413874438426e-15 99.999999999998067  1.4210854715202004e-14 3.1554436208840472e-30 100 
 -1.5707963267948966 11 1.5707963267948966 11
2 0 0 0 -2.4492935982947064e-16 -1 0 1 -2.4492935982947064e-16 0 0 0 1 100
7 0 0  3 124 122  13.226002274651215 0 0  13.225890504358645 7.6251748296439098e-20 -0.0012452855525287541  13.225658689688807 2.3471120706076494e-19 -0.0038331249013867515  13.223855777242999 4.6473997336430147e-19 -0.0075897797420100485  13.221060163945562 6.900000577444506e-19 -0.01126855609674325  13.217178538165651 9.1091204267226049e-19 -0.014876322598588799  13.212242686382908 1.1283439270164036e-18 -0.018427254744829293  13.206244392068347 1.3419050468210412e-18 -0.021914972508895264  13.199183510115608 1.5511841891057699e-18 -0.025332760273178597  13.191061175757515 1.7555016603251426e-18 -0.028669517799701779  13.181880449113661 1.9541128393134086e-18 -0.03191308450197948  13.171645916051897 2.1462233933589266e-18 -0.035050487942371804  13.16036340119317 2.3310030733531259e-18 -0.038068169123963921  13.148039777459253 2.5075873863650685e-18 -0.040952009805781529  13.134682841845043 2.6750740131845598e-18 -0.043687273996829951  13.120301233975038 2.8325160943470529e-18 -0.046258498308559839  13.104904381166818 2.9789130524200127e-18 -0.048649342071429048  13.088502459659423 3.1131988841589017e-18 -0.050842396131299768  13.071106365540722 3.2342274019940506e-18 -0.052818941824628061  13.052727691295932 3.3407538101473825e-18 -0.054558650093616302  13.033378705043026 3.4314030643422335e-18 -0.056039064761061068  13.013072328843826 3.504717398393698e-18 -0.057236378698475657  12.991822127237784 3.5585610597085501e-18 -0.05811571241906089  12.969642220883815 3.5930443873036214e-18 -0.05867886789571064  12.946547681324434 3.5967358434856604e-18 -0.058739153950181359  12.922555122736098 3.6059767100691915e-18 -0.058890068754187952  12.897679541530113 3.6410173618294448e-18 -0.059462326025176607  12.87193784243734 3.6986193479781198e-18 -0.060403037848190066  12.845347542342916 3.7816731484636761e-18 -0.06175940934311222  12.817926734463104 3.8909505310075028e-18 -0.063544044433326147  12.789694038942347 4.0271886872809359e-18 -0.065768982372465618  12.760668568940925 4.190657373793583e-18 -0.068438628618656114  12.730869915481946 4.3812922327085544e-18 -0.071551932128659151  12.700318143807875 4.5987566371263393e-18 -0.075103395368006073  12.669033796456743 4.842515662935397e-18 -0.079084282362995514  12.637037896617725 5.1119023083475127e-18 -0.083483700147775147  12.604351947583375 5.4061706986376422e-18 -0.088289467663682772  12.570997926795695 5.7245343873400901e-18 -0.093488741265248629  12.536998274901435 6.0661906183639983e-18 -0.099068410950610683  12.502375881111224 6.4303329191185017e-18 -0.10501530602285573  12.467154066256981 6.8161549077651739e-18 -0.11131625726717036  12.431356564657023 7.2228480822915856e-18 -0.11795806084367204  12.395007505519178 7.6495959318230184e-18 -0.12492738211783128  12.358131394289536 8.0955661875800499e-18 -0.13221062910900511  12.320753094129998 8.5599025336148482e-18 -0.13979381711648756  12.282897807574908 9.0417166796312061e-18 -0.14766243925883613  12.244591058348972 9.540081372973395e-18 -0.15580135235098921  12.20585867330168 1.0054024687088123e-17 -0.16419468362777132  12.166726764408383 1.0582525754354081e-17 -0.17282576105571087  12.127221710793382 1.1124511995923036e-17 -0.18167706809291226  12.087370140739932 1.1678857825730037e-17 -0.19073022252393609  12.047198913661083 1.2244384758527996e-17 -0.199965978224138  12.006735102014169 1.2819862823904545e-17 -0.20936424825231623  11.966005973148166 1.3404013173324488e-17 -0.21890414742694603  11.925038971079008 1.3995511760777147e-17 -0.22856405243571237  11.883861698191462 1.459299397644191e-17 -0.23832167750901112  11.842501896869791 1.5195060114792097e-17 -0.24815416372086205  11.80098743106114 1.5800281562321336e-17 -0.2580381800421494  11.759346267777579 1.6407207594685599e-17 -0.26795003434637538  11.717606458543798 1.7014372677939906e-17 -0.27786579264790429  11.675796120798106 1.762030417336924e-17 -0.28776140493140034  11.633943419255226 1.8223530349986257e-17 -0.29761283600584576  11.592076547239467 1.8822588613009194e-17 -0.30739619988578282  11.550223707997025 1.941603386052062e-17 -0.31708789626590816  11.508413095996445 2.000244688406189e-17 -0.32666474771319165  11.466672878225763 2.0580442732180506e-17 -0.3361041362539699  11.42503117549515 2.1148678958972594e-17 -0.34538413808286811  11.38351604375338 2.1705863682509626e-17 -0.35448365516689534  11.342155455426358 2.2250763380770149e-17 -0.36338254256267188  11.300977280785816 2.2782210355371278e-17 -0.3720617303084145  11.260009269356036 2.3299109796073171e-17 -0.38050333879604992  11.219279031366517 2.3800446381767677e-17 -0.38869078657354061  11.178814019258621 2.4285290356516371e-17 -0.39660888957411616  11.138641509254345 2.4752803022230325e-17 -0.40424395081854114  11.098788582995923 2.520224159283855e-17 -0.41158383968970208  11.05928210926565 2.5632963358333826e-17 -0.41861805993663631  11.020148725795847 2.604442911097237e-17 -0.42533780562861906  10.981414821180525 2.6436205790201929e-17 -0.43173600435011705  10.943106516900986 2.6807968307664962e-17 -0.43780734700535229  10.905249649479526 2.715950051894192e-17 -0.44354830368807435  10.867869752776771 2.7490695314627529e-17 -0.44895712516894865  10.830992040449967 2.7801553809947753e-17 -0.45403382966099742  10.794641388591145 2.8092183619482488e-17 -0.45878017464368276  10.758842318565758 2.8362796211726566e-17 -0.46319961365960943  10.723618980073825 2.8613703347236677e-17 -0.46729723814504964  10.688995134456576 2.884531261400623e-17 -0.47107970451708137  10.654994138272553 2.9058122084482374e-17 -0.47455514691605405  10.621638927167229 2.9252714130255663e-17 -0.47773307619180555  10.588952000059917 2.9429748442839387e-17 -0.48062426592433877  10.556955403670978 2.958995432198231e-17 -0.4832406264824109  10.525670717410533 2.9734122306438699e-17 -0.48559506834363597  10.495119038648033 2.9863095235805566e-17 -0.48770135612320897  10.465320968379132 2.9977758845596407e-17 -0.4895739549798046  10.436296597303073 3.007903201077312e-17 -0.49122787128036122  10.408065492320532 3.0167856765037612e-17 -0.49267848960274341  10.380646683457833 3.0245188233776162e-17 -0.49394140832824679  10.354058651219999 3.0311984627117523e-17 -0.49503227621583473  10.32831931437161 3.0369197445520062e-17 -0.49596663244723754  10.303446018141319 3.0417762053117507e-17 -0.49675975267800537  10.279455522843799 3.0458588773208209e-17 -0.49742650361581259  10.256363992910996 3.0492554655370274e-17 -0.49798120856724365  10.234186986324366 3.0520496054433183e-17 -0.4984375262432032  10.212939444439778 3.0543202147819713e-17 -0.49880834488907461  10.192635682198373 3.0561409499657381e-17 -0.49910569350992345  10.173289378718769 3.0575797757841314e-17 -0.49934067159820078  10.154913568268837 3.0586986544397758e-17 -0.49952339834952586  10.137520631618585 3.0595533570773949e-17 -0.4996629818830336  10.121122287779288 3.06019339789536e-17 -0.49976750848097357  10.105729586136876 3.060662087760182e-17 -0.49984405134462184  10.091352898990953 3.0609967010910447e-17 -0.4998986978485927  10.078001914512475 3.061228746760075e-17 -0.49993659378221078  10.065685630134643 3.0613843309758014e-17 -0.49996200261287682  10.054412346391834 3.0614845976863028e-17 -0.49997837740936041  10.044189661220681 3.0615462300413559e-17 -0.49998844273678317  10.035024464736122 3.061581994959347e-17 -0.49999428359114478  10.026922934493031 3.0616013119014384e-17 -0.4999974382871934  10.019890724556271 3.0616108265877656e-17 -0.49999899215339122  10.013930320392166 3.0616149706014789e-17 -0.49999966892218961  10.009057313962293 3.0616164885885827e-17 -0.49999991682829681  10.005241045467708 3.0616169161009965e-17 -0.49999998664637241  10.00254551080741 3.0616169927457613e-17 -0.49999999916341237  10.000904112718867 3.0616169978703817e-17 -0.50000000000032641  10.000180564965451 3.0616169978690067e-17 -0.50000000000010181  9.9999999999999982 3.0616169978683824e-17 -0.49999999999999989 
 0 4 0.0011342681843394249 1 0.0023574831177345613 1 0.0037427378941404543 1 0.0053399585311528887 1 0.0071815389452386889 1 0.0092881332201593062 1 0.011672965459892942 1 0.014344539514561048 1 0.017308274722481601 1 0.020567498648938903 1 0.024124063719519445 1 0.027978741849978714 1 0.03213148531913735 1 0.036581605210765707 1 0.041327898071880323 1 0.046368739712042716 1 0.051702158347080369 1 0.057325895458395157 1 0.063237460685019897 1 0.069434186250217161 1 0.075913286685213466 1 0.082671931129486717 1 0.089707348833927128 1 0.097016720040330046 1 0.10459667425642051 1 0.11244381851248908 1 0.12055473244306818 1 0.12892586060318881 1 0.13755340436744987 1 0.14643323215774728 1 0.15556082057497231 1 0.16493122998835269 1 0.17453911003989134 1 0.18437872581824571 1 0.19444399452508235 1 0.20472852417896903 1 0.2152256487407917 1 0.22592845681536974 1 0.23682981318967494 1 0.24792237378513815 1 0.25919859525982231 1 0.27065074070312523 1 0.28227088280977303 1 0.29405090573753595 1 0.30598250662908688 1 0.31805719755821749 1 0.33026630846477056 1 0.34260099147724338 1 0.35505222688615784 1 0.36761083092110536 1 0.38026746539529327 1 0.39301264920926193 1 0.4058367716467402 1 0.41873010734762378 1 0.43168283280380498 1 0.44468504419157073 1 0.45772677632847469 1 0.47079802252227615 1 0.48388875506421591 1 0.49698894610821792 1 0.51008858867143381 1 0.52317771748959474 1 0.53624642946302103 1 0.54928490343554526 1 0.56228341905924306 1 0.57523237451241216 1 0.58812230285678946 1 0.60094388684233169 1 0.61368797199382008 1 0.62634557784289802 1 0.63890790720153234 1 0.65136635340795213 1 0.66371250551335648 1 0.67593815141649138 1 0.68803527899293193 1 0.69999607530572949 1 0.71181292402319973 1 0.72347840120697948 1 0.73498526966821431 1 0.74632647212063385 1 0.75749512338547853 1 0.76848450192361006 1 0.77928804098387838 1 0.78989931966306115 1 0.80031205417089668 1 0.81052008958355382 1 0.82051739235015853 1 0.83029804379008032 1 0.83985623478405547 1 0.84918626182091361 1 0.85828252451492837 1 0.86713952465828636 1 0.87575186682080053 1 0.8841142604568174 1 0.89222152342960193 1 0.9000685868184447 1 0.90765050083541543 1 0.91496244164886154 1 0.92199971889071064 1 0.9287577836152654 1 0.93523223647861153 1 0.94141883591957309 1 0.94731350614421861 1 0.95291234474459152 1 0.95821162981643326 1 0.963207826477811 1 0.96789759272817499 1 0.97227778462309655 1 0.97634546077160422 1 0.98009788618908533 1 0.983532535558025 1 0.98664709596107836 1 0.98943946915629022 1 0.991907773463506 1 0.99405034532534264 1 0.99586574059701061 1 0.99735273560834958 1 0.99851032803016426 1 0.99933773756654254 1 0.99983440648625577 1 1 4
1 9.9999999999999982 3.0616169978683824e-17 -0.49999999999999989 -1 0 -0 
2 0.49999999999999983 0 0 0 1 6.123233995736766e-17 1.457167719820518e-16 6.123233995736766e-17 -1 -1 8.9225789194952223e-33 -1.457167719820518e-16 0.49999999999999989
2 0.49999999999999983 0 0 -2.7369110631344083e-48 -1 6.1232339957367648e-17 1.457167719820518e-16 6.1232339957367648e-17 1 -1 8.9225789194952237e-33 1.457167719820518e-16 0.49999999999999989
1 9.9999999999999982 3.0616169978683824e-17 -0.49999999999999989 -1 0 0 
7 0 0  3 124 122  13.226002274651215 0 0  13.225890504358645 7.6251748296439122e-20 0.0012452855525287541  13.225658689688807 2.3471120706076499e-19 0.0038331249013867515  13.223855777242999 4.6473997336430147e-19 0.0075897797420100485  13.221060163945562 6.9000005774445069e-19 0.01126855609674325  13.217178538165651 9.1091204267226068e-19 0.014876322598588799  13.212242686382908 1.1283439270164034e-18 0.018427254744829293  13.206244392068347 1.341905046821041e-18 0.021914972508895264  13.199183510115608 1.5511841891057697e-18 0.025332760273178597  13.191061175757515 1.7555016603251426e-18 0.028669517799701779  13.181880449113661 1.9541128393134086e-18 0.03191308450197948  13.171645916051897 2.1462233933589266e-18 0.035050487942371804  13.16036340119317 2.3310030733531259e-18 0.038068169123963921  13.148039777459253 2.5075873863650685e-18 0.040952009805781529  13.134682841845043 2.6750740131845598e-18 0.043687273996829951  13.120301233975038 2.8325160943470525e-18 0.046258498308559839  13.104904381166818 2.978913052420013e-18 0.048649342071429048  13.088502459659423 3.1131988841589009e-18 0.050842396131299768  13.071106365540722 3.2342274019940502e-18 0.052818941824628061  13.052727691295932 3.3407538101473821e-18 0.054558650093616302  13.033378705043026 3.4314030643422335e-18 0.056039064761061068  13.013072328843826 3.504717398393698e-18 0.057236378698475657  12.991822127237784 3.5585610597085501e-18 0.05811571241906089  12.969642220883815 3.5930443873036222e-18 0.05867886789571064  12.946547681324434 3.5967358434856604e-18 0.058739153950181359  12.922555122736098 3.6059767100691915e-18 0.058890068754187952  12.897679541530113 3.6410173618294448e-18 0.059462326025176607  12.87193784243734 3.698619347978119e-18 0.060403037848190066  12.845347542342916 3.7816731484636761e-18 0.06175940934311222  12.817926734463104 3.8909505310075035e-18 0.063544044433326147  12.789694038942347 4.0271886872809359e-18 0.065768982372465618  12.760668568940925 4.190657373793583e-18 0.068438628618656114  12.730869915481946 4.3812922327085552e-18 0.071551932128659151  12.700318143807875 4.5987566371263393e-18 0.075103395368006073  12.669033796456743 4.8425156629353985e-18 0.079084282362995514  12.637037896617725 5.1119023083475119e-18 0.083483700147775147  12.604351947583375 5.4061706986376422e-18 0.088289467663682772  12.570997926795695 5.7245343873400901e-18 0.093488741265248629  12.536998274901435 6.0661906183639983e-18 0.099068410950610683  12.502375881111224 6.4303329191185024e-18 0.10501530602285573  12.467154066256981 6.8161549077651746e-18 0.11131625726717036  12.431356564657023 7.2228480822915871e-18 0.11795806084367204  12.395007505519178 7.6495959318230184e-18 0.12492738211783128  12.358131394289536 8.0955661875800483e-18 0.13221062910900511  12.320753094129998 8.5599025336148482e-18 0.13979381711648756  12.282897807574908 9.0417166796312046e-18 0.14766243925883613  12.244591058348972 9.540081372973395e-18 0.15580135235098921  12.20585867330168 1.0054024687088123e-17 0.16419468362777132  12.166726764408383 1.0582525754354079e-17 0.17282576105571087  12.127221710793382 1.1124511995923034e-17 0.18167706809291226  12.087370140739932 1.1678857825730037e-17 0.19073022252393609  12.047198913661083 1.2244384758527996e-17 0.199965978224138  12.006735102014169 1.2819862823904548e-17 0.20936424825231623  11.966005973148166 1.3404013173324486e-17 0.21890414742694603  11.925038971079008 1.399551176077715e-17 0.22856405243571237  11.883861698191462 1.459299397644191e-17 0.23832167750901112  11.842501896869791 1.5195060114792094e-17 0.24815416372086205  11.80098743106114 1.5800281562321333e-17 0.2580381800421494  11.759346267777579 1.6407207594685602e-17 0.26795003434637538  11.717606458543798 1.7014372677939903e-17 0.27786579264790429  11.675796120798106 1.762030417336924e-17 0.28776140493140034  11.633943419255226 1.8223530349986254e-17 0.29761283600584576  11.592076547239467 1.8822588613009194e-17 0.30739619988578282  11.550223707997025 1.9416033860520617e-17 0.31708789626590816  11.508413095996445 2.0002446884061893e-17 0.32666474771319165  11.466672878225763 2.0580442732180513e-17 0.3361041362539699  11.42503117549515 2.1148678958972594e-17 0.34538413808286811  11.38351604375338 2.1705863682509626e-17 0.35448365516689534  11.342155455426358 2.2250763380770143e-17 0.36338254256267188  11.300977280785816 2.2782210355371275e-17 0.3720617303084145  11.260009269356036 2.3299109796073168e-17 0.38050333879604992  11.219279031366517 2.380044638176767e-17 0.38869078657354061  11.178814019258621 2.4285290356516368e-17 0.39660888957411616  11.138641509254345 2.4752803022230322e-17 0.40424395081854114  11.098788582995923 2.5202241592838547e-17 0.41158383968970208  11.05928210926565 2.563296335833382e-17 0.41861805993663631  11.020148725795847 2.6044429110972376e-17 0.42533780562861906  10.981414821180525 2.6436205790201929e-17 0.43173600435011705  10.943106516900986 2.6807968307664959e-17 0.43780734700535229  10.905249649479526 2.7159500518941926e-17 0.44354830368807435  10.867869752776771 2.7490695314627523e-17 0.44895712516894865  10.830992040449967 2.7801553809947753e-17 0.45403382966099742  10.794641388591145 2.8092183619482488e-17 0.45878017464368276  10.758842318565758 2.8362796211726572e-17 0.46319961365960943  10.723618980073825 2.8613703347236683e-17 0.46729723814504964  10.688995134456576 2.8845312614006236e-17 0.47107970451708137  10.654994138272553 2.9058122084482374e-17 0.47455514691605405  10.621638927167229 2.9252714130255657e-17 0.47773307619180555  10.588952000059917 2.9429748442839381e-17 0.48062426592433877  10.556955403670978 2.958995432198231e-17 0.4832406264824109  10.525670717410533 2.9734122306438705e-17 0.48559506834363597  10.495119038648033 2.9863095235805566e-17 0.48770135612320897  10.465320968379132 2.9977758845596401e-17 0.4895739549798046  10.436296597303073 3.007903201077312e-17 0.49122787128036122  10.408065492320532 3.0167856765037606e-17 0.49267848960274341  10.380646683457833 3.0245188233776168e-17 0.49394140832824679  10.354058651219999 3.0311984627117523e-17 0.49503227621583473  10.32831931437161 3.0369197445520055e-17 0.49596663244723754  10.303446018141319 3.0417762053117501e-17 0.49675975267800537  10.279455522843799 3.0458588773208215e-17 0.49742650361581259  10.256363992910996 3.0492554655370274e-17 0.49798120856724365  10.234186986324366 3.0520496054433183e-17 0.4984375262432032  10.212939444439778 3.0543202147819707e-17 0.49880834488907461  10.192635682198373 3.0561409499657381e-17 0.49910569350992345  10.173289378718769 3.0575797757841308e-17 0.49934067159820078  10.154913568268837 3.0586986544397758e-17 0.49952339834952586  10.137520631618585 3.0595533570773955e-17 0.4996629818830336  10.121122287779288 3.0601933978953594e-17 0.49976750848097357  10.105729586136876 3.0606620877601814e-17 0.49984405134462184  10.091352898990953 3.0609967010910441e-17 0.4998986978485927  10.078001914512475 3.0612287467600756e-17 0.49993659378221078  10.065685630134643 3.0613843309758007e-17 0.49996200261287682  10.054412346391834 3.0614845976863021e-17 0.49997837740936041  10.044189661220681 3.0615462300413565e-17 0.49998844273678317  10.035024464736122 3.061581994959347e-17 0.49999428359114478  10.026922934493031 3.0616013119014378e-17 0.4999974382871934  10.019890724556271 3.0616108265877656e-17 0.49999899215339122  10.013930320392166 3.0616149706014795e-17 0.49999966892218961  10.009057313962293 3.0616164885885827e-17 0.49999991682829681  10.005241045467708 3.0616169161009971e-17 0.49999998664637241  10.00254551080741 3.0616169927457613e-17 0.49999999916341237  10.000904112718867 3.0616169978703817e-17 0.50000000000032641  10.000180564965451 3.0616169978690061e-17 0.50000000000010181  9.9999999999999982 3.0616169978683824e-17 0.49999999999999989 
 0 4 0.0011342681843394249 1 0.0023574831177345613 1 0.0037427378941404543 1 0.0053399585311528887 1 0.0071815389452386889 1 0.0092881332201593062 1 0.011672965459892942 1 0.014344539514561048 1 0.017308274722481601 1 0.020567498648938903 1 0.024124063719519445 1 0.027978741849978714 1 0.03213148531913735 1 0.036581605210765707 1 0.041327898071880323 1 0.046368739712042716 1 0.051702158347080369 1 0.057325895458395157 1 0.063237460685019897 1 0.069434186250217161 1 0.075913286685213466 1 0.082671931129486717 1 0.089707348833927128 1 0.097016720040330046 1 0.10459667425642051 1 0.11244381851248908 1 0.12055473244306818 1 0.12892586060318881 1 0.13755340436744987 1 0.14643323215774728 1 0.15556082057497231 1 0.16493122998835269 1 0.17453911003989134 1 0.18437872581824571 1 0.19444399452508235 1 0.20472852417896903 1 0.2152256487407917 1 0.22592845681536974 1 0.23682981318967494 1 0.24792237378513815 1 0.25919859525982231 1 0.27065074070312523 1 0.28227088280977303 1 0.29405090573753595 1 0.30598250662908688 1 0.31805719755821749 1 0.33026630846477056 1 0.34260099147724338 1 0.35505222688615784 1 0.36761083092110536 1 0.38026746539529327 1 0.39301264920926193 1 0.4058367716467402 1 0.41873010734762378 1 0.43168283280380498 1 0.44468504419157073 1 0.45772677632847469 1 0.47079802252227615 1 0.48388875506421591 1 0.49698894610821792 1 0.51008858867143381 1 0.52317771748959474 1 0.53624642946302103 1 0.54928490343554526 1 0.56228341905924306 1 0.57523237451241216 1 0.58812230285678946 1 0.60094388684233169 1 0.61368797199382008 1 0.62634557784289802 1 0.63890790720153234 1 0.65136635340795213 1 0.66371250551335648 1 0.67593815141649138 1 0.68803527899293193 1 0.69999607530572949 1 0.71181292402319973 1 0.72347840120697948 1 0.73498526966821431 1 0.74632647212063385 1 0.75749512338547853 1 0.76848450192361006 1 0.77928804098387838 1 0.78989931966306115 1 0.80031205417089668 1 0.81052008958355382 1 0.82051739235015853 1 0.83029804379008032 1 0.83985623478405547 1 0.84918626182091361 1 0.85828252451492837 1 0.86713952465828636 1 0.87575186682080053 1 0.8841142604568174 1 0.89222152342960193 1 0.9000685868184447 1 0.90765050083541543 1 0.91496244164886154 1 0.92199971889071064 1 0.9287577836152654 1 0.93523223647861153 1 0.94141883591957309 1 0.94731350614421861 1 0.95291234474459152 1 0.95821162981643326 1 0.963207826477811 1 0.96789759272817499 1 0.97227778462309655 1 0.97634546077160422 1 0.98009788618908533 1 0.983532535558025 1 0.98664709596107836 1 0.98943946915629022 1 0.991907773463506 1 0.99405034532534264 1 0.99586574059701061 1 0.99735273560834958 1 0.99851032803016426 1 0.99933773756654254 1 0.99983440648625577 1 1 4
2 9.9999999999999982 0 0 1 -0 0 0 6.123233995736766e-17 -1 0 1 6.123233995736766e-17 0.49999999999999989
2 0.49999999999999989 0 0 1 -0 0 0 6.123233995736766e-17 -1 0 1 6.123233995736766e-17 0.49999999999999989
Polygon3D 0
PolygonOnTriangulations 0
Surfaces 5
10 0 3.1415926535897931 -1.5707963267948966 1.5707963267948966
4 0 0 0 0 0 1 1 0 -0 -0 1 0 100
1 -200 0 -200 -0 1 0 0 0 1 1 0 -0 
7 0 0 0 1 0 0 
8 0 1
7 0 0  3 124 122  13.226002274651215 0 0  13.225890504358645 7.6251748296439098e-20 -0.0012452855525287541  13.225658689688807 2.3471120706076494e-19 -0.0038331249013867515  13.223855777242999 4.6473997336430147e-19 -0.0075897797420100485  13.221060163945562 6.900000577444506e-19 -0.01126855609674325  13.217178538165651 9.1091204267226049e-19 -0.014876322598588799  13.212242686382908 1.1283439270164036e-18 -0.018427254744829293  13.206244392068347 1.3419050468210412e-18 -0.021914972508895264  13.199183510115608 1.5511841891057699e-18 -0.025332760273178597  13.191061175757515 1.7555016603251426e-18 -0.028669517799701779  13.181880449113661 1.9541128393134086e-18 -0.03191308450197948  13.171645916051897 2.1462233933589266e-18 -0.035050487942371804  13.16036340119317 2.3310030733531259e-18 -0.038068169123963921  13.148039777459253 2.5075873863650685e-18 -0.040952009805781529  13.134682841845043 2.6750740131845598e-18 -0.043687273996829951  13.120301233975038 2.8325160943470529e-18 -0.046258498308559839  13.104904381166818 2.9789130524200127e-18 -0.048649342071429048  13.088502459659423 3.1131988841589017e-18 -0.050842396131299768  13.071106365540722 3.2342274019940506e-18 -0.052818941824628061  13.052727691295932 3.3407538101473825e-18 -0.054558650093616302  13.033378705043026 3.4314030643422335e-18 -0.056039064761061068  13.013072328843826 3.504717398393698e-18 -0.057236378698475657  12.991822127237784 3.5585610597085501e-18 -0.05811571241906089  12.969642220883815 3.5930443873036214e-18 -0.05867886789571064  12.946547681324434 3.5967358434856604e-18 -0.058739153950181359  12.922555122736098 3.6059767100691915e-18 -0.058890068754187952  12.897679541530113 3.6410173618294448e-18 -0.059462326025176607  12.87193784243734 3.6986193479781198e-18 -0.060403037848190066  12.845347542342916 3.7816731484636761e-18 -0.06175940934311222  12.817926734463104 3.8909505310075028e-18 -0.063544044433326147  12.789694038942347 4.0271886872809359e-18 -0.065768982372465618  12.760668568940925 4.190657373793583e-18 -0.068438628618656114  12.730869915481946 4.3812922327085544e-18 -0.071551932128659151  12.700318143807875 4.5987566371263393e-18 -0.075103395368006073  12.669033796456743 4.842515662935397e-18 -0.079084282362995514  12.637037896617725 5.1119023083475127e-18 -0.083483700147775147  12.604351947583375 5.4061706986376422e-18 -0.088289467663682772  12.570997926795695 5.7245343873400901e-18 -0.093488741265248629  12.536998274901435 6.0661906183639983e-18 -0.099068410950610683  12.502375881111224 6.4303329191185017e-18 -0.10501530602285573  12.467154066256981 6.8161549077651739e-18 -0.11131625726717036  12.431356564657023 7.2228480822915856e-18 -0.11795806084367204  12.395007505519178 7.6495959318230184e-18 -0.12492738211783128  12.358131394289536 8.0955661875800499e-18 -0.13221062910900511  12.320753094129998 8.5599025336148482e-18 -0.13979381711648756  12.282897807574908 9.0417166796312061e-18 -0.14766243925883613  12.244591058348972 9.540081372973395e-18 -0.15580135235098921  12.20585867330168 1.0054024687088123e-17 -0.16419468362777132  12.166726764408383 1.0582525754354081e-17 -0.17282576105571087  12.127221710793382 1.1124511995923036e-17 -0.18167706809291226  12.087370140739932 1.1678857825730037e-17 -0.19073022252393609  12.047198913661083 1.2244384758527996e-17 -0.199965978224138  12.006735102014169 1.2819862823904545e-17 -0.20936424825231623  11.966005973148166 1.3404013173324488e-17 -0.21890414742694603  11.925038971079008 1.3995511760777147e-17 -0.22856405243571237  11.883861698191462 1.459299397644191e-17 -0.23832167750901112  11.842501896869791 1.5195060114792097e-17 -0.24815416372086205  11.80098743106114 1.5800281562321336e-17 -0.2580381800421494  11.759346267777579 1.6407207594685599e-17 -0.26795003434637538  11.717606458543798 1.7014372677939906e-17 -0.27786579264790429  11.675796120798106 1.762030417336924e-17 -0.28776140493140034  11.633943419255226 1.8223530349986257e-17 -0.29761283600584576  11.592076547239467 1.8822588613009194e-17 -0.30739619988578282  11.550223707997025 1.941603386052062e-17 -0.31708789626590816  11.508413095996445 2.000244688406189e-17 -0.32666474771319165  11.466672878225763 2.0580442732180506e-17 -0.3361041362539699  11.42503117549515 2.1148678958972594e-17 -0.34538413808286811  11.38351604375338 2.1705863682509626e-17 -0.35448365516689534  11.342155455426358 2.2250763380770149e-17 -0.36338254256267188  11.300977280785816 2.2782210355371278e-17 -0.3720617303084145  11.260009269356036 2.3299109796073171e-17 -0.38050333879604992  11.219279031366517 2.3800446381767677e-17 -0.38869078657354061  11.178814019258621 2.4285290356516371e-17 -0.39660888957411616  11.138641509254345 2.4752803022230325e-17 -0.40424395081854114  11.098788582995923 2.520224159283855e-17 -0.41158383968970208  11.05928210926565 2.5632963358333826e-17 -0.41861805993663631  11.020148725795847 2.604442911097237e-17 -0.42533780562861906  10.981414821180525 2.6436205790201929e-17 -0.43173600435011705  10.943106516900986 2.6807968307664962e-17 -0.43780734700535229  10.905249649479526 2.715950051894192e-17 -0.44354830368807435  10.867869752776771 2.7490695314627529e-17 -0.44895712516894865  10.830992040449967 2.7801553809947753e-17 -0.45403382966099742  10.794641388591145 2.8092183619482488e-17 -0.45878017464368276  10.758842318565758 2.8362796211726566e-17 -0.46319961365960943  10.723618980073825 2.8613703347236677e-17 -0.46729723814504964  10.688995134456576 2.884531261400623e-17 -0.47107970451708137  10.654994138272553 2.9058122084482374e-17 -0.47455514691605405  10.621638927167229 2.9252714130255663e-17 -0.47773307619180555  10.588952000059917 2.9429748442839387e-17 -0.48062426592433877  10.556955403670978 2.958995432198231e-17 -0.4832406264824109  10.525670717410533 2.9734122306438699e-17 -0.48559506834363597  10.495119038648033 2.9863095235805566e-17 -0.48770135612320897  10.465320968379132 2.9977758845596407e-17 -0.4895739549798046  10.436296597303073 3.007903201077312e-17 -0.49122787128036122  10.408065492320532 3.0167856765037612e-17 -0.49267848960274341  10.380646683457833 3.0245188233776162e-17 -0.49394140832824679  10.354058651219999 3.0311984627117523e-17 -0.49503227621583473  10.32831931437161 3.0369197445520062e-17 -0.49596663244723754  10.303446018141319 3.0417762053117507e-17 -0.49675975267800537  10.279455522843799 3.0458588773208209e-17 -0.49742650361581259  10.256363992910996 3.0492554655370274e-17 -0.49798120856724365  10.234186986324366 3.0520496054433183e-17 -0.4984375262432032  10.212939444439778 3.0543202147819713e-17 -0.49880834488907461  10.192635682198373 3.0561409499657381e-17 -0.49910569350992345  10.173289378718769 3.0575797757841314e-17 -0.49934067159820078  10.154913568268837 3.0586986544397758e-17 -0.49952339834952586  10.137520631618585 3.0595533570773949e-17 -0.4996629818830336  10.121122287779288 3.06019339789536e-17 -0.49976750848097357  10.105729586136876 3.060662087760182e-17 -0.49984405134462184  10.091352898990953 3.0609967010910447e-17 -0.4998986978485927  10.078001914512475 3.061228746760075e-17 -0.49993659378221078  10.065685630134643 3.0613843309758014e-17 -0.49996200261287682  10.054412346391834 3.0614845976863028e-17 -0.49997837740936041  10.044189661220681 3.0615462300413559e-17 -0.49998844273678317  10.035024464736122 3.061581994959347e-17 -0.49999428359114478  10.026922934493031 3.0616013119014384e-17 -0.4999974382871934  10.019890724556271 3.0616108265877656e-17 -0.49999899215339122  10.013930320392166 3.0616149706014789e-17 -0.49999966892218961  10.009057313962293 3.0616164885885827e-17 -0.49999991682829681  10.005241045467708 3.0616169161009965e-17 -0.49999998664637241  10.00254551080741 3.0616169927457613e-17 -0.49999999916341237  10.000904112718867 3.0616169978703817e-17 -0.50000000000032641  10.000180564965451 3.0616169978690067e-17 -0.50000000000010181  9.9999999999999982 3.0616169978683824e-17 -0.49999999999999989 
 0 4 0.0011342681843394249 1 0.0023574831177345613 1 0.0037427378941404543 1 0.0053399585311528887 1 0.0071815389452386889 1 0.0092881332201593062 1 0.011672965459892942 1 0.014344539514561048 1 0.017308274722481601 1 0.020567498648938903 1 0.024124063719519445 1 0.027978741849978714 1 0.03213148531913735 1 0.036581605210765707 1 0.041327898071880323 1 0.046368739712042716 1 0.051702158347080369 1 0.057325895458395157 1 0.063237460685019897 1 0.069434186250217161 1 0.075913286685213466 1 0.082671931129486717 1 0.089707348833927128 1 0.097016720040330046 1 0.10459667425642051 1 0.11244381851248908 1 0.12055473244306818 1 0.12892586060318881 1 0.13755340436744987 1 0.14643323215774728 1 0.15556082057497231 1 0.16493122998835269 1 0.17453911003989134 1 0.18437872581824571 1 0.19444399452508235 1 0.20472852417896903 1 0.2152256487407917 1 0.22592845681536974 1 0.23682981318967494 1 0.24792237378513815 1 0.25919859525982231 1 0.27065074070312523 1 0.28227088280977303 1 0.29405090573753595 1 0.30598250662908688 1 0.31805719755821749 1 0.33026630846477056 1 0.34260099147724338 1 0.35505222688615784 1 0.36761083092110536 1 0.38026746539529327 1 0.39301264920926193 1 0.4058367716467402 1 0.41873010734762378 1 0.43168283280380498 1 0.44468504419157073 1 0.45772677632847469 1 0.47079802252227615 1 0.48388875506421591 1 0.49698894610821792 1 0.51008858867143381 1 0.52317771748959474 1 0.53624642946302103 1 0.54928490343554526 1 0.56228341905924306 1 0.57523237451241216 1 0.58812230285678946 1 0.60094388684233169 1 0.61368797199382008 1 0.62634557784289802 1 0.63890790720153234 1 0.65136635340795213 1 0.66371250551335648 1 0.67593815141649138 1 0.68803527899293193 1 0.69999607530572949 1 0.71181292402319973 1 0.72347840120697948 1 0.73498526966821431 1 0.74632647212063385 1 0.75749512338547853 1 0.76848450192361006 1 0.77928804098387838 1 0.78989931966306115 1 0.80031205417089668 1 0.81052008958355382 1 0.82051739235015853 1 0.83029804379008032 1 0.83985623478405547 1 0.84918626182091361 1 0.85828252451492837 1 0.86713952465828636 1 0.87575186682080053 1 0.8841142604568174 1 0.89222152342960193 1 0.9000685868184447 1 0.90765050083541543 1 0.91496244164886154 1 0.92199971889071064 1 0.9287577836152654 1 0.93523223647861153 1 0.94141883591957309 1 0.94731350614421861 1 0.95291234474459152 1 0.95821162981643326 1 0.963207826477811 1 0.96789759272817499 1 0.97227778462309655 1 0.97634546077160422 1 0.98009788618908533 1 0.983532535558025 1 0.98664709596107836 1 0.98943946915629022 1 0.991907773463506 1 0.99405034532534264 1 0.99586574059701061 1 0.99735273560834958 1 0.99851032803016426 1 0.99933773756654254 1 0.99983440648625577 1 1 4
2 9.9999999999999982 0 0 -1 0 0 0 6.123233995736766e-17 -1 0 1 6.123233995736766e-17 0.49999999999999989
4 0.49999999999999983 0 0 -1 0 0 0 6.123233995736766e-17 -1 0 1 6.123233995736766e-17 0.49999999999999989
Triangulations 0

TShapes 36
Ve
1e-05
6.12323399573677e-15 -1.49975978266186e-30 100
0 0

0101101
*
Ve
1e-05
6.12323399573677e-15 -1.49975978266186e-30 -100
0 0

0101101
*
Ed
 1e-05 1 1 0
1  1 0 -1.5707963267949 1.5707963267949
2  1 1 0 -1.5707963267949 1.5707963267949
0

0101000
-36 0 +35 0 *
Ed
 1e-07 1 1 1
2  2 1 0 0 3.14159265358979
0

0101100
+35 0 -35 0 *
Ed
 1e-07 1 1 0
1  2 0 4.71238898038469 7.85398163397448
2  3 1 0 4.71238898038469 7.85398163397448
0

0101000
+35 0 -36 0 *
Ed
 1e-07 1 1 1
2  4 1 0 0 3.14159265358979
0

0101100
-36 0 +36 0 *
Wi

0101000
+34 0 +33 0 -32 0 -31 0 *
Fa
0  1e-07 1 0

0111000
+30 0 *
Wi

0101000
+34 0 -32 0 *
Ve
1.05e-06
13.2260022746512 0 0
0 0

0101101
*
Ve
1.05e-06
10 3.06161699786838e-17 -0.5
0 0

0101101
*
Ed
 1.05e-06 1 1 0
1  3 0 0 1
2  5 3 0 0 1
0

0101000
+27 0 -26 0 *
Ve
1.05e-06
0.5 3.06161699786838e-17 -0.5
0 0

0101101
*
Ed
 1.05e-06 1 1 0
1  4 0 0 9.5
2  6 4 0 0 9.5
0

0101000
+26 0 -24 0 *
Ve
1.05e-06
0 0 0
0 0

0101101
*
Ed
 1.05e-06 1 1 0
1  5 0 0 1.5707963267949
2  7 5 0 0 1.5707963267949
0

0101000
+24 0 -22 0 *
Ve
1.05e-06
0.5 3.06161699786838e-17 0.5
0 0

0101101
*
Ed
 1.05e-06 1 1 0
1  6 0 0 1.5707963267949
2  8 5 0 0 1.5707963267949
0

0101100
+20 0 -22 0 *
Ve
1.05e-06
10 3.06161699786838e-17 0.5
0 0

0101101
*
Ed
 1.05e-06 1 1 0
1  7 0 0 9.5
2  9 4 2 0 9.5
0

0101000
+18 2 -20 2 *
Ed
 1.05e-06 1 1 0
1  8 0 0 1
2  10 3 0 0 1
0

0101000
+27 0 -18 0 *
Wi

0101000
-25 0 -23 0 -21 0 +19 0 +17 1 +16 0 *
Fa
0  1e-07 2 0

0111000
+28 0 +15 0 *
Ed
 1.05e-06 1 1 0
1  9 0 0 3.14159265358979
2  11 3 0 0 3.14159265358979
2  12 4 0 0 3.14159265358979
4 G1 3 0 4 0
0

0101000
+26 0 -18 0 *
Ed
 1.05e-06 1 1 1
2  13 3 0 0 3.14159265358979
0

0101100
+27 0 -27 0 *
Wi

0101000
-25 0 -13 0 +16 0 +12 0 *
Fa
0  1.05e-06 3 0

0111000
+11 0 *
Ed
 1.05e-06 1 1 0
1  10 0 0 3.14159265358979
2  14 4 0 0 3.14159265358979
2  15 5 0 0 3.14159265358979
4 G1 4 0 5 0
0

0101000
+24 0 -20 0 *
Wi

0101000
+13 0 -23 0 +17 1 -9 0 *
Fa
0  1.05e-06 4 0

0111000
+8 0 *
Ed
 1.05e-06 1 1 1
2  16 5 0 0 3.14159265358979
0

0101100
+22 0 -22 0 *
Wi

0101000
-21 0 -6 0 +19 0 +9 0 *
Fa
0  1.05e-06 5 0

0111000
+5 0 *
Sh

0101100
+29 0 -14 0 +10 0 +7 0 +4 0 *
So

0100000
+3 0 *
Co

1100000
+2 0 *

+1 0 
##EGADS HEADER FILE-REV 1 ##
0
  1  1  5  6  14  8  3
1 5 1
_body
133
1 5 1
_brch
38
2 8 3
_tParams
 8.061956445944e+00  3.224782578378e-01  1.500000000000e+01 
    2 0 3
1 5 2
_body
1 2 
1 5 2
_brch
1 2 
1 7 3
_faceID
1 2 1 
    2 1 3
1 5 2
_body
2 3 
1 5 2
_brch
2 3 
1 7 3
_faceID
2 3 1 
    2 2 3
1 5 2
_body
132 3 
1 5 2
_brch
37 3 
1 7 3
_faceID
132 3 1 
    2 3 3
1 5 2
_body
132 4 
1 5 2
_brch
37 4 
1 7 3
_faceID
132 4 1 
    2 4 3
1 5 2
_body
132 5 
1 5 2
_brch
37 5 
1 7 3
_faceID
132 5 1 
    4 0 2
1 5 2
_body
3 0 
1 7 5
_edgeID
1 2 2 3 1 
    4 1 2
1 5 2
_body
1 -3 
1 7 5
_edgeID
0 0 1 2 1 
    4 2 2
1 5 2
_body
3 0 
1 7 5
_edgeID
1 2 2 3 2 
    4 3 2
1 5 2
_body
1 -3 
1 7 5
_edgeID
0 0 1 2 2 
    4 4 2
1 5 2
_body
133 0 
1 7 5
_edgeID
2 3 132 3 1 
    4 5 2
1 5 2
_body
133 0 
1 7 5
_edgeID
2 3 132 4 1 
    4 6 2
1 5 2
_body
133 0 
1 7 5
_edgeID
2 3 132 5 1 
    4 7 2
1 5 2
_body
133 0 
1 7 5
_edgeID
2 3 132 5 2 
    4 8 2
1 5 2
_body
133 0 
1 7 5
_edgeID
2 3 132 4 2 
    4 9 2
1 5 2
_body
133 0 
1 7 5
_edgeID
2 3 132 3 2 
    4 10 2
1 5 2
_body
132 304 
1 7 5
_edgeID
132 3 132 4 1 
    4 11 2
1 5 2
_body
132 -3 
1 7 5
_edgeID
0 0 132 3 1 
    4 12 2
1 5 2
_body
132 405 
1 7 5
_edgeID
132 4 132 5 1 
    4 13 2
1 5 2
_body
132 -3 
1 7 5
_edgeID
0 0 132 5 1 
    0 0 0
